<?xml version="1.0" encoding="UTF-8"?>
<svg width="1920" height="1080" viewBox="0 0 1920 1080" xmlns="http://www.w3.org/2000/svg">
    <!-- Background -->
    <rect width="1920" height="1080" fill="#1E1E1E"/>
    
    <!-- Grid Pattern -->
    <defs>
        <pattern id="grid" width="20" height="20" patternUnits="userSpaceOnUse">
            <path d="M 20 0 L 0 0 0 20" fill="none" stroke="#2D2D2D" stroke-width="0.5"/>
        </pattern>
    </defs>
    <rect width="1920" height="1080" fill="url(#grid)"/>
    
    <!-- Top Navigation Bar -->
    <rect x="0" y="0" width="1920" height="60" fill="#252526"/>
    <g fill="#FFFFFF">
        <!-- Project Selector -->
        <rect x="20" y="15" width="200" height="30" rx="4" fill="#3C3C3C"/>
        <text x="30" y="37" font-family="Segoe UI" font-size="14">Project: ADE Platform</text>
        
        <!-- Global Search -->
        <rect x="240" y="15" width="400" height="30" rx="4" fill="#3C3C3C"/>
        <text x="250" y="37" font-family="Segoe UI" font-size="14" fill="#888888">Search...</text>
        
        <!-- Right Controls -->
        <g transform="translate(1700, 15)">
            <!-- Notification Bell -->
            <circle cx="20" cy="15" r="12" fill="#3C3C3C"/>
            <text x="20" y="20" text-anchor="middle" font-family="Segoe UI" font-size="12">3</text>
            
            <!-- User Profile -->
            <circle cx="60" cy="15" r="12" fill="#3C3C3C"/>
            <text x="60" y="20" text-anchor="middle" font-family="Segoe UI" font-size="12">JD</text>
        </g>
    </g>
    
    <!-- Left Sidebar - Agent Team Panel -->
    <rect x="0" y="60" width="300" height="1020" fill="#252526"/>
    <g fill="#FFFFFF">
        <text x="20" y="90" font-family="Segoe UI" font-size="16" font-weight="bold">Agent Team</text>
        
        <!-- Agent List -->
        <g transform="translate(20, 120)">
            <!-- Project Manager -->
            <rect width="260" height="60" rx="4" fill="#3C3C3C"/>
            <circle cx="30" cy="30" r="20" fill="#4CAF50"/>
            <text x="60" y="35" font-family="Segoe UI" font-size="14">Project Manager</text>
            <circle cx="240" cy="30" r="6" fill="#4CAF50"/>
            
            <!-- Architect -->
            <g transform="translate(0, 70)">
                <rect width="260" height="60" rx="4" fill="#3C3C3C"/>
                <circle cx="30" cy="30" r="20" fill="#2196F3"/>
                <text x="60" y="35" font-family="Segoe UI" font-size="14">Architect</text>
                <circle cx="240" cy="30" r="6" fill="#FFC107"/>
            </g>
            
            <!-- Developer -->
            <g transform="translate(0, 140)">
                <rect width="260" height="60" rx="4" fill="#3C3C3C"/>
                <circle cx="30" cy="30" r="20" fill="#9C27B0"/>
                <text x="60" y="35" font-family="Segoe UI" font-size="14">Developer</text>
                <circle cx="240" cy="30" r="6" fill="#4CAF50"/>
            </g>
            
            <!-- Tester -->
            <g transform="translate(0, 210)">
                <rect width="260" height="60" rx="4" fill="#3C3C3C"/>
                <circle cx="30" cy="30" r="20" fill="#FF5722"/>
                <text x="60" y="35" font-family="Segoe UI" font-size="14">Tester</text>
                <circle cx="240" cy="30" r="6" fill="#FFC107"/>
            </g>
            
            <!-- DevOps -->
            <g transform="translate(0, 280)">
                <rect width="260" height="60" rx="4" fill="#3C3C3C"/>
                <circle cx="30" cy="30" r="20" fill="#607D8B"/>
                <text x="60" y="35" font-family="Segoe UI" font-size="14">DevOps</text>
                <circle cx="240" cy="30" r="6" fill="#4CAF50"/>
            </g>
        </g>
    </g>
    
    <!-- Main Workspace -->
    <rect x="300" y="60" width="1320" height="720" fill="#1E1E1E"/>
    <g fill="#FFFFFF">
        <!-- Tab Navigation -->
        <g transform="translate(320, 80)">
            <rect width="120" height="30" rx="4" fill="#4CAF50"/>
            <text x="20" y="20" font-family="Segoe UI" font-size="14">Plan View</text>
            
            <g transform="translate(130, 0)">
                <rect width="120" height="30" rx="4" fill="#3C3C3C"/>
                <text x="20" y="20" font-family="Segoe UI" font-size="14">Code Editor</text>
            </g>
            
            <g transform="translate(260, 0)">
                <rect width="120" height="30" rx="4" fill="#3C3C3C"/>
                <text x="20" y="20" font-family="Segoe UI" font-size="14">Documentation</text>
            </g>
            
            <g transform="translate(390, 0)">
                <rect width="120" height="30" rx="4" fill="#3C3C3C"/>
                <text x="20" y="20" font-family="Segoe UI" font-size="14">Testing</text>
            </g>
            
            <g transform="translate(520, 0)">
                <rect width="120" height="30" rx="4" fill="#3C3C3C"/>
                <text x="20" y="20" font-family="Segoe UI" font-size="14">Deployment</text>
            </g>
        </g>
        
        <!-- Gantt Chart -->
        <g transform="translate(320, 120)">
            <!-- Timeline -->
            <rect width="1280" height="40" fill="#3C3C3C"/>
            <g transform="translate(20, 10)">
                <text font-family="Segoe UI" font-size="12" fill="#888888">Week 1</text>
                <text x="200" font-family="Segoe UI" font-size="12" fill="#888888">Week 2</text>
                <text x="400" font-family="Segoe UI" font-size="12" fill="#888888">Week 3</text>
                <text x="600" font-family="Segoe UI" font-size="12" fill="#888888">Week 4</text>
            </g>
            
            <!-- Tasks -->
            <g transform="translate(0, 50)">
                <!-- Task 1 -->
                <rect x="20" y="0" width="200" height="30" rx="4" fill="#4CAF50"/>
                <text x="30" y="20" font-family="Segoe UI" font-size="12">System Design</text>
                
                <!-- Task 2 -->
                <rect x="240" y="0" width="200" height="30" rx="4" fill="#FFC107"/>
                <text x="250" y="20" font-family="Segoe UI" font-size="12">Implementation</text>
                
                <!-- Task 3 -->
                <rect x="460" y="0" width="200" height="30" rx="4" fill="#FF5722"/>
                <text x="470" y="20" font-family="Segoe UI" font-size="12">Testing</text>
                
                <!-- Task 4 -->
                <rect x="680" y="0" width="200" height="30" rx="4" fill="#607D8B"/>
                <text x="690" y="20" font-family="Segoe UI" font-size="12">Deployment</text>
            </g>
        </g>
    </g>
    
    <!-- Right Sidebar - Context Panel -->
    <rect x="1620" y="60" width="300" height="1020" fill="#252526"/>
    <g fill="#FFFFFF">
        <text x="20" y="90" font-family="Segoe UI" font-size="16" font-weight="bold">Context</text>
        
        <!-- Active Context -->
        <g transform="translate(20, 120)">
            <rect width="260" height="200" rx="4" fill="#3C3C3C"/>
            <text x="10" y="30" font-family="Segoe UI" font-size="14">Current File</text>
            <text x="10" y="60" font-family="Segoe UI" font-size="12" fill="#888888">src/core/api/routes/early_access.py</text>
            
            <text x="10" y="90" font-family="Segoe UI" font-size="14">GitHub Issue</text>
            <text x="10" y="120" font-family="Segoe UI" font-size="12" fill="#888888">#123 - Implement early access system</text>
            
            <text x="10" y="150" font-family="Segoe UI" font-size="14">Previous Conversation</text>
            <text x="10" y="180" font-family="Segoe UI" font-size="12" fill="#888888">Last 3 messages...</text>
        </g>
        
        <!-- Resource Meters -->
        <g transform="translate(20, 340)">
            <text x="0" y="0" font-family="Segoe UI" font-size="14">Resources</text>
            
            <!-- Compute Hours -->
            <g transform="translate(0, 30)">
                <text font-family="Segoe UI" font-size="12">Compute Hours</text>
                <rect x="0" y="20" width="260" height="10" fill="#3C3C3C"/>
                <rect x="0" y="20" width="180" height="10" fill="#4CAF50"/>
            </g>
            
            <!-- Storage -->
            <g transform="translate(0, 60)">
                <text font-family="Segoe UI" font-size="12">Storage</text>
                <rect x="0" y="20" width="260" height="10" fill="#3C3C3C"/>
                <rect x="0" y="20" width="200" height="10" fill="#2196F3"/>
            </g>
            
            <!-- API Calls -->
            <g transform="translate(0, 90)">
                <text font-family="Segoe UI" font-size="12">API Calls</text>
                <rect x="0" y="20" width="260" height="10" fill="#3C3C3C"/>
                <rect x="0" y="20" width="150" height="10" fill="#FFC107"/>
            </g>
        </g>
    </g>
    
    <!-- Bottom Panel - Terminal -->
    <rect x="300" y="780" width="1320" height="300" fill="#1E1E1E"/>
    <g fill="#FFFFFF">
        <!-- Terminal Output -->
        <rect x="320" y="800" width="1280" height="200" rx="4" fill="#000000"/>
        <text x="330" y="820" font-family="Consolas" font-size="12" fill="#00FF00">$ git status</text>
        <text x="330" y="840" font-family="Consolas" font-size="12" fill="#00FF00">On branch main</text>
        
        <!-- Input Area -->
        <g transform="translate(320, 920)">
            <rect width="1080" height="40" rx="4" fill="#3C3C3C"/>
            <text x="10" y="25" font-family="Segoe UI" font-size="14" fill="#888888">Enter command...</text>
            
            <!-- Voice Input Button -->
            <circle cx="1040" cy="20" r="15" fill="#FF5722"/>
            <text x="1040" y="25" text-anchor="middle" font-family="Segoe UI" font-size="12">🎤</text>
            
            <!-- Send Button -->
            <rect x="1065" y="10" width="40" height="20" rx="4" fill="#4CAF50"/>
            <text x="1085" y="25" text-anchor="middle" font-family="Segoe UI" font-size="12">Send</text>
        </g>
    </g>
</svg> 